<mxfile host="app.diagrams.net" agent="Mozilla/5.0 (Windows NT 10.0; Win64; x64) AppleWebKit/537.36 (KHTML, like Gecko) Chrome/131.0.0.0 Safari/537.36" version="26.0.3">
  <diagram name="Страница — 1" id="YJ285yF_Hj-oV2c_umj6">
    <mxGraphModel dx="1488" dy="762" grid="1" gridSize="10" guides="1" tooltips="1" connect="1" arrows="1" fold="1" page="1" pageScale="1" pageWidth="827" pageHeight="1169" math="0" shadow="0">
      <root>
        <mxCell id="0" />
        <mxCell id="1" parent="0" />
        <mxCell id="dRO05HRyYeka43NntyVJ-1" value="Пользователь" style="shape=umlActor;verticalLabelPosition=bottom;verticalAlign=top;html=1;outlineConnect=0;" vertex="1" parent="1">
          <mxGeometry x="170" y="250" width="30" height="60" as="geometry" />
        </mxCell>
        <mxCell id="dRO05HRyYeka43NntyVJ-2" value="System" style="swimlane;whiteSpace=wrap;html=1;" vertex="1" parent="1">
          <mxGeometry x="410" y="130" width="860" height="730" as="geometry" />
        </mxCell>
        <mxCell id="dRO05HRyYeka43NntyVJ-9" value="получить ряд шагов для оказания первой помощи" style="ellipse;whiteSpace=wrap;html=1;" vertex="1" parent="dRO05HRyYeka43NntyVJ-2">
          <mxGeometry x="55" y="190" width="130" height="80" as="geometry" />
        </mxCell>
        <mxCell id="dRO05HRyYeka43NntyVJ-11" style="edgeStyle=orthogonalEdgeStyle;rounded=0;orthogonalLoop=1;jettySize=auto;html=1;entryX=0;entryY=0.5;entryDx=0;entryDy=0;dashed=1;" edge="1" parent="dRO05HRyYeka43NntyVJ-2" source="dRO05HRyYeka43NntyVJ-8" target="dRO05HRyYeka43NntyVJ-10">
          <mxGeometry relative="1" as="geometry" />
        </mxCell>
        <mxCell id="dRO05HRyYeka43NntyVJ-13" value="&amp;lt;&amp;lt;include&amp;gt;&amp;gt;" style="edgeLabel;html=1;align=center;verticalAlign=middle;resizable=0;points=[];" vertex="1" connectable="0" parent="dRO05HRyYeka43NntyVJ-11">
          <mxGeometry x="-0.7033" y="-4" relative="1" as="geometry">
            <mxPoint x="32" y="-4" as="offset" />
          </mxGeometry>
        </mxCell>
        <mxCell id="dRO05HRyYeka43NntyVJ-8" value="Получить возможный диагноз" style="ellipse;whiteSpace=wrap;html=1;" vertex="1" parent="dRO05HRyYeka43NntyVJ-2">
          <mxGeometry x="300" y="190" width="120" height="80" as="geometry" />
        </mxCell>
        <mxCell id="dRO05HRyYeka43NntyVJ-10" value="ввести данные о человеке (примерный возраст, симптомы, повреждения)" style="ellipse;whiteSpace=wrap;html=1;" vertex="1" parent="dRO05HRyYeka43NntyVJ-2">
          <mxGeometry x="490" y="50" width="190" height="90" as="geometry" />
        </mxCell>
        <mxCell id="dRO05HRyYeka43NntyVJ-18" style="edgeStyle=orthogonalEdgeStyle;rounded=0;orthogonalLoop=1;jettySize=auto;html=1;entryX=0;entryY=0.5;entryDx=0;entryDy=0;dashed=1;" edge="1" parent="dRO05HRyYeka43NntyVJ-2" source="dRO05HRyYeka43NntyVJ-9" target="dRO05HRyYeka43NntyVJ-8">
          <mxGeometry relative="1" as="geometry" />
        </mxCell>
        <mxCell id="dRO05HRyYeka43NntyVJ-20" value="&amp;lt;&amp;lt;include&amp;gt;&amp;gt;" style="edgeLabel;html=1;align=center;verticalAlign=middle;resizable=0;points=[];" vertex="1" connectable="0" parent="dRO05HRyYeka43NntyVJ-18">
          <mxGeometry x="-0.2575" y="-4" relative="1" as="geometry">
            <mxPoint y="-6" as="offset" />
          </mxGeometry>
        </mxCell>
        <mxCell id="dRO05HRyYeka43NntyVJ-21" value="Предоставить данные к геолокации" style="ellipse;whiteSpace=wrap;html=1;" vertex="1" parent="dRO05HRyYeka43NntyVJ-2">
          <mxGeometry x="60" y="60" width="120" height="80" as="geometry" />
        </mxCell>
        <mxCell id="dRO05HRyYeka43NntyVJ-22" value="Вызвать экстренные службы" style="ellipse;whiteSpace=wrap;html=1;" vertex="1" parent="dRO05HRyYeka43NntyVJ-2">
          <mxGeometry x="60" y="310" width="120" height="80" as="geometry" />
        </mxCell>
        <mxCell id="dRO05HRyYeka43NntyVJ-28" value="Написать в тех. поддержку&amp;nbsp;" style="ellipse;whiteSpace=wrap;html=1;" vertex="1" parent="dRO05HRyYeka43NntyVJ-2">
          <mxGeometry x="50" y="530" width="120" height="80" as="geometry" />
        </mxCell>
        <mxCell id="dRO05HRyYeka43NntyVJ-29" value="Предложить исправить шаги по оказанию первой попомщи" style="ellipse;whiteSpace=wrap;html=1;" vertex="1" parent="dRO05HRyYeka43NntyVJ-2">
          <mxGeometry x="50" y="630" width="120" height="80" as="geometry" />
        </mxCell>
        <mxCell id="dRO05HRyYeka43NntyVJ-56" value="" style="edgeStyle=orthogonalEdgeStyle;rounded=0;orthogonalLoop=1;jettySize=auto;html=1;dashed=1;" edge="1" parent="dRO05HRyYeka43NntyVJ-2" source="dRO05HRyYeka43NntyVJ-53" target="dRO05HRyYeka43NntyVJ-55">
          <mxGeometry relative="1" as="geometry" />
        </mxCell>
        <mxCell id="dRO05HRyYeka43NntyVJ-57" value="&amp;lt;&amp;lt;include&amp;gt;&amp;gt;" style="edgeLabel;html=1;align=center;verticalAlign=middle;resizable=0;points=[];" vertex="1" connectable="0" parent="dRO05HRyYeka43NntyVJ-56">
          <mxGeometry x="-0.0022" y="1" relative="1" as="geometry">
            <mxPoint as="offset" />
          </mxGeometry>
        </mxCell>
        <mxCell id="dRO05HRyYeka43NntyVJ-53" value="Зарегистрироваться&amp;nbsp;" style="ellipse;whiteSpace=wrap;html=1;" vertex="1" parent="dRO05HRyYeka43NntyVJ-2">
          <mxGeometry x="55" y="420" width="120" height="80" as="geometry" />
        </mxCell>
        <mxCell id="dRO05HRyYeka43NntyVJ-55" value="Ввести данные о пользователе&amp;nbsp;" style="ellipse;whiteSpace=wrap;html=1;" vertex="1" parent="dRO05HRyYeka43NntyVJ-2">
          <mxGeometry x="280" y="420" width="120" height="80" as="geometry" />
        </mxCell>
        <mxCell id="dRO05HRyYeka43NntyVJ-26" value="Внесение новой информации в приложение&amp;nbsp;" style="ellipse;whiteSpace=wrap;html=1;" vertex="1" parent="dRO05HRyYeka43NntyVJ-2">
          <mxGeometry x="660" y="295" width="120" height="80" as="geometry" />
        </mxCell>
        <mxCell id="dRO05HRyYeka43NntyVJ-33" value="Ответить пользователю" style="ellipse;whiteSpace=wrap;html=1;" vertex="1" parent="dRO05HRyYeka43NntyVJ-2">
          <mxGeometry x="680" y="590" width="120" height="80" as="geometry" />
        </mxCell>
        <mxCell id="dRO05HRyYeka43NntyVJ-44" value="Управление пользователями" style="ellipse;whiteSpace=wrap;html=1;" vertex="1" parent="dRO05HRyYeka43NntyVJ-2">
          <mxGeometry x="660" y="410" width="120" height="80" as="geometry" />
        </mxCell>
        <mxCell id="dRO05HRyYeka43NntyVJ-46" value="Удалить пользователя" style="ellipse;whiteSpace=wrap;html=1;" vertex="1" parent="dRO05HRyYeka43NntyVJ-2">
          <mxGeometry x="480" y="510" width="120" height="80" as="geometry" />
        </mxCell>
        <mxCell id="dRO05HRyYeka43NntyVJ-47" value="Внести пользователя" style="ellipse;whiteSpace=wrap;html=1;" vertex="1" parent="dRO05HRyYeka43NntyVJ-2">
          <mxGeometry x="480" y="410" width="120" height="80" as="geometry" />
        </mxCell>
        <mxCell id="dRO05HRyYeka43NntyVJ-50" value="" style="endArrow=block;html=1;rounded=0;exitX=1;exitY=0.5;exitDx=0;exitDy=0;entryX=0;entryY=0.625;entryDx=0;entryDy=0;entryPerimeter=0;endFill=0;" edge="1" parent="dRO05HRyYeka43NntyVJ-2" source="dRO05HRyYeka43NntyVJ-46" target="dRO05HRyYeka43NntyVJ-44">
          <mxGeometry width="50" height="50" relative="1" as="geometry">
            <mxPoint x="480" y="710" as="sourcePoint" />
            <mxPoint x="530" y="660" as="targetPoint" />
          </mxGeometry>
        </mxCell>
        <mxCell id="dRO05HRyYeka43NntyVJ-51" value="" style="endArrow=block;html=1;rounded=0;exitX=1;exitY=0.5;exitDx=0;exitDy=0;entryX=-0.018;entryY=0.632;entryDx=0;entryDy=0;entryPerimeter=0;endFill=0;" edge="1" parent="dRO05HRyYeka43NntyVJ-2" source="dRO05HRyYeka43NntyVJ-47" target="dRO05HRyYeka43NntyVJ-44">
          <mxGeometry width="50" height="50" relative="1" as="geometry">
            <mxPoint x="590" y="420" as="sourcePoint" />
            <mxPoint x="640" y="370" as="targetPoint" />
          </mxGeometry>
        </mxCell>
        <mxCell id="dRO05HRyYeka43NntyVJ-25" value="Администратор" style="shape=umlActor;verticalLabelPosition=bottom;verticalAlign=top;html=1;outlineConnect=0;" vertex="1" parent="dRO05HRyYeka43NntyVJ-2">
          <mxGeometry x="920" y="280" width="30" height="60" as="geometry" />
        </mxCell>
        <mxCell id="dRO05HRyYeka43NntyVJ-27" value="" style="endArrow=none;html=1;rounded=0;exitX=1.025;exitY=0.635;exitDx=0;exitDy=0;exitPerimeter=0;" edge="1" parent="dRO05HRyYeka43NntyVJ-2" source="dRO05HRyYeka43NntyVJ-26" target="dRO05HRyYeka43NntyVJ-25">
          <mxGeometry width="50" height="50" relative="1" as="geometry">
            <mxPoint x="500" y="350" as="sourcePoint" />
            <mxPoint x="550" y="300" as="targetPoint" />
          </mxGeometry>
        </mxCell>
        <mxCell id="dRO05HRyYeka43NntyVJ-30" value="Тех.поддержка" style="shape=umlActor;verticalLabelPosition=bottom;verticalAlign=top;html=1;outlineConnect=0;" vertex="1" parent="dRO05HRyYeka43NntyVJ-2">
          <mxGeometry x="920" y="540" width="30" height="60" as="geometry" />
        </mxCell>
        <mxCell id="dRO05HRyYeka43NntyVJ-34" value="" style="endArrow=none;html=1;rounded=0;exitX=1;exitY=0.5;exitDx=0;exitDy=0;" edge="1" parent="dRO05HRyYeka43NntyVJ-2" source="dRO05HRyYeka43NntyVJ-33" target="dRO05HRyYeka43NntyVJ-30">
          <mxGeometry width="50" height="50" relative="1" as="geometry">
            <mxPoint x="600" y="600" as="sourcePoint" />
            <mxPoint x="650" y="550" as="targetPoint" />
          </mxGeometry>
        </mxCell>
        <mxCell id="dRO05HRyYeka43NntyVJ-45" value="" style="endArrow=none;html=1;rounded=0;exitX=1;exitY=0.5;exitDx=0;exitDy=0;" edge="1" parent="dRO05HRyYeka43NntyVJ-2" source="dRO05HRyYeka43NntyVJ-44" target="dRO05HRyYeka43NntyVJ-25">
          <mxGeometry width="50" height="50" relative="1" as="geometry">
            <mxPoint x="790" y="460" as="sourcePoint" />
            <mxPoint x="840" y="410" as="targetPoint" />
          </mxGeometry>
        </mxCell>
        <mxCell id="dRO05HRyYeka43NntyVJ-16" value="" style="endArrow=none;html=1;rounded=0;entryX=0.02;entryY=0.426;entryDx=0;entryDy=0;entryPerimeter=0;" edge="1" parent="1" source="dRO05HRyYeka43NntyVJ-1" target="dRO05HRyYeka43NntyVJ-9">
          <mxGeometry width="50" height="50" relative="1" as="geometry">
            <mxPoint x="280" y="360" as="sourcePoint" />
            <mxPoint x="330" y="310" as="targetPoint" />
          </mxGeometry>
        </mxCell>
        <mxCell id="dRO05HRyYeka43NntyVJ-23" value="" style="endArrow=none;html=1;rounded=0;entryX=0;entryY=0.5;entryDx=0;entryDy=0;exitX=1;exitY=0.3333333333333333;exitDx=0;exitDy=0;exitPerimeter=0;" edge="1" parent="1" source="dRO05HRyYeka43NntyVJ-1" target="dRO05HRyYeka43NntyVJ-21">
          <mxGeometry width="50" height="50" relative="1" as="geometry">
            <mxPoint x="320" y="280" as="sourcePoint" />
            <mxPoint x="370" y="230" as="targetPoint" />
          </mxGeometry>
        </mxCell>
        <mxCell id="dRO05HRyYeka43NntyVJ-24" value="" style="endArrow=none;html=1;rounded=0;entryX=0;entryY=0.375;entryDx=0;entryDy=0;entryPerimeter=0;" edge="1" parent="1" source="dRO05HRyYeka43NntyVJ-1" target="dRO05HRyYeka43NntyVJ-22">
          <mxGeometry width="50" height="50" relative="1" as="geometry">
            <mxPoint x="200" y="450" as="sourcePoint" />
            <mxPoint x="250" y="400" as="targetPoint" />
          </mxGeometry>
        </mxCell>
        <mxCell id="dRO05HRyYeka43NntyVJ-40" style="edgeStyle=orthogonalEdgeStyle;rounded=0;orthogonalLoop=1;jettySize=auto;html=1;" edge="1" parent="1" source="dRO05HRyYeka43NntyVJ-35" target="dRO05HRyYeka43NntyVJ-1">
          <mxGeometry relative="1" as="geometry" />
        </mxCell>
        <mxCell id="dRO05HRyYeka43NntyVJ-35" value="Зарегистрированный пользователь&amp;nbsp;" style="shape=umlActor;verticalLabelPosition=bottom;verticalAlign=top;html=1;outlineConnect=0;" vertex="1" parent="1">
          <mxGeometry x="170" y="525" width="30" height="60" as="geometry" />
        </mxCell>
        <mxCell id="dRO05HRyYeka43NntyVJ-41" value="" style="endArrow=none;html=1;rounded=0;entryX=0.029;entryY=0.428;entryDx=0;entryDy=0;entryPerimeter=0;" edge="1" parent="1" source="dRO05HRyYeka43NntyVJ-35" target="dRO05HRyYeka43NntyVJ-29">
          <mxGeometry width="50" height="50" relative="1" as="geometry">
            <mxPoint x="320" y="640" as="sourcePoint" />
            <mxPoint x="370" y="590" as="targetPoint" />
          </mxGeometry>
        </mxCell>
        <mxCell id="dRO05HRyYeka43NntyVJ-42" value="" style="endArrow=none;html=1;rounded=0;entryX=-0.014;entryY=0.442;entryDx=0;entryDy=0;entryPerimeter=0;" edge="1" parent="1" source="dRO05HRyYeka43NntyVJ-35" target="dRO05HRyYeka43NntyVJ-28">
          <mxGeometry width="50" height="50" relative="1" as="geometry">
            <mxPoint x="310" y="580" as="sourcePoint" />
            <mxPoint x="360" y="530" as="targetPoint" />
          </mxGeometry>
        </mxCell>
        <mxCell id="dRO05HRyYeka43NntyVJ-54" value="" style="endArrow=none;html=1;rounded=0;entryX=1;entryY=1;entryDx=0;entryDy=0;entryPerimeter=0;exitX=-0.005;exitY=0.423;exitDx=0;exitDy=0;exitPerimeter=0;" edge="1" parent="1" source="dRO05HRyYeka43NntyVJ-53" target="dRO05HRyYeka43NntyVJ-1">
          <mxGeometry width="50" height="50" relative="1" as="geometry">
            <mxPoint x="260" y="500" as="sourcePoint" />
            <mxPoint x="310" y="450" as="targetPoint" />
          </mxGeometry>
        </mxCell>
      </root>
    </mxGraphModel>
  </diagram>
</mxfile>
